<?xml version="1.0" encoding="utf-8"?>
<!-- Generator: Adobe Illustrator 21.1.0, SVG Export Plug-In . SVG Version: 6.00 Build 0)  -->
<svg version="1.1"
	 id="svg4155" xmlns:cc="http://creativecommons.org/ns#" xmlns:dc="http://purl.org/dc/elements/1.1/" xmlns:rdf="http://www.w3.org/1999/02/22-rdf-syntax-ns#" xmlns:svg="http://www.w3.org/2000/svg"
	 xmlns="http://www.w3.org/2000/svg" xmlns:xlink="http://www.w3.org/1999/xlink" x="0px" y="0px" viewBox="0 0 123.2 123.1"
	 style="enable-background:new 0 0 123.2 123.1;" xml:space="preserve">
<path id="path4177" d="M114.1,24.1c-2.7,0-5-2.2-5-5c0-2.7,2.2-5,5-5c2.7,0,5,2.2,5,5C119.1,21.9,116.8,24.1,114.1,24.1 M64.8,108.9
	c-2.7,0-5-2.2-5-5c0-2.7,2.2-5,5-5c2.7,0,5,2.2,5,5C69.8,106.7,67.6,108.9,64.8,108.9 M114.1,10.1c-5,0-9.1,4.1-9.1,9.1
	c0,1.1,0.3,2.1,0.6,3L63,95.2c-4.1,0.9-7.3,4.3-7.3,8.7c0,5,4.1,9.1,9.1,9.1c5,0,9.1-4.1,9.1-9.1c0-1-0.3-1.9-0.6-2.8l42.8-73.3
	c4-1,7-4.4,7-8.7C123.2,14.1,119.1,10.1,114.1,10.1"/>
<path id="path4179" d="M76.9,24.1c-2.7,0-5-2.2-5-5c0-2.7,2.2-5,5-5c2.7,0,5,2.2,5,5C81.9,21.9,79.7,24.1,76.9,24.1 M27.7,108.9
	c-2.7,0-5-2.2-5-5c0-2.7,2.2-5,5-5c2.7,0,5,2.2,5,5C32.6,106.7,30.4,108.9,27.7,108.9 M76.9,10.1c-5,0-9.1,4.1-9.1,9.1
	c0,1.1,0.3,2.1,0.6,3l-42.6,73c-4.1,0.9-7.3,4.3-7.3,8.7c0,5,4.1,9.1,9.1,9.1c5,0,9.1-4.1,9.1-9.1c0-1-0.3-1.9-0.6-2.8L79,27.8
	c4-1,7-4.4,7-8.7C86,14.1,82,10.1,76.9,10.1"/>
<path id="path4181" d="M9.1,39.3c2.7,0,5,2.2,5,5s-2.2,5-5,5c-2.7,0-5-2.2-5-5S6.3,39.3,9.1,39.3 M9.1,53.3c5,0,9.1-4.1,9.1-9.1
	c0-1-0.3-1.9-0.6-2.8c-1.2-3.6-4.5-6.2-8.5-6.2c-0.6,0-1.2,0.2-1.8,0.4C3.2,36.4,0,39.9,0,44.3C0,49.3,4.1,53.3,9.1,53.3"/>
<path id="path4183" d="M4.1,76c0-2.7,2.2-5,5-5s5,2.2,5,5c0,2.7-2.2,5-5,5S4.1,78.7,4.1,76 M18.2,76c0-1-0.3-1.9-0.6-2.8
	c-1.2-3.6-4.5-6.2-8.5-6.2c-0.6,0-1.2,0.2-1.8,0.4C3.2,68.1,0,71.6,0,76c0,5,4.1,9.1,9.1,9.1S18.2,81,18.2,76"/>
</svg>
