<?xml version="1.0" encoding="utf-8"?>
<!-- Generator: Adobe Illustrator 21.1.0, SVG Export Plug-In . SVG Version: 6.00 Build 0)  -->
<svg version="1.1" id="Layer_1" xmlns="http://www.w3.org/2000/svg" xmlns:xlink="http://www.w3.org/1999/xlink" x="0px" y="0px"
	 viewBox="0 0 32 32" style="enable-background:new 0 0 32 32;" xml:space="preserve">
<path d="M20,30.9c1.5-15.7,0.8-22.8-2.7-26.1c-3.7,2-5.5,4.8-5,9.2c0.3,2.6,0.3,5.3,0,7.9c-0.1,1.1-1.2,2-1.8,3C9.9,24,9,23,9,22
	c-0.2-3.4,0.2-6.9-0.2-10.3C8.5,9,7.3,6.4,6.6,3.8L5.3,4.2L6.9,1h1.9c3.5,4.7,4.5,4.7,9.4,0H20c5.4,4.1,5.7,9.8,5.4,15.9
	c-0.2,4.6,0.1,9.3,0.2,14L20,30.9z"/>
</svg>
