<svg xmlns="http://www.w3.org/2000/svg" width="6" height="14" viewBox="0 0 6 14"><path fill="#000000" fill-rule="evenodd" d="M5.61892523,0.0105063753 C5.6058541,0.0215876974 5.23691101,0.423174812 4.80176899,0.905433952 L4.01117665,1.7808584 L3.69493971,3.07737309 L2.81200619,3.09377345 C1.17010402,3.12967693 0.200310755,3.26841509 0.0211098252,3.49270105 C-0.0130437638,3.53436682 -0.00798397283,3.54810766 0.0527335187,3.60351427 C0.482394101,3.99136054 3.87371899,4.10483328 5.44183254,3.78613446 C5.9979879,3.67266172 6.1400837,3.53126405 5.83733954,3.39562866 C5.60796235,3.29057773 4.76719375,3.14607729 4.39066097,3.14607729 C4.28777856,3.14607729 4.2641662,3.13765548 4.2641662,3.09643297 C4.2641662,3.0716108 4.32193214,2.8167404 4.39066097,2.53394505 L4.51462585,2.0188852 L5.25251203,1.19886736 C5.65856026,0.747192672 5.99292811,0.356686879 5.99840955,0.334524235 C6.02497345,0.209970174 5.71126641,-0.0559815576 5.61892523,0.0105063753 L5.61892523,0.0105063753 Z M0.708819747,10.4765935 C0.788089805,10.5763254 1.34930495,10.7452048 1.91853144,10.8396176 C2.35325181,10.9114246 3.5920573,10.9114246 4.02677767,10.8396176 C4.40078055,10.7757892 4.80935867,10.6760573 5.00711217,10.5984881 C5.28624397,10.4903344 5.25209038,10.6095694 5.41020885,9.17165702 C5.48652736,8.47087421 5.64717573,6.99040957 5.78674163,5.64159104 C5.88962404,4.62787169 5.97395389,3.79366976 5.96847245,3.79101024 C5.96594256,3.7856912 5.89721373,3.8074106 5.81541378,3.83799504 C5.60964894,3.91290478 5.16438734,3.99313355 4.62931445,4.05119968 C4.04954673,4.11192533 2.08634784,4.12034713 1.51163991,4.06494052 C0.976567019,4.01219343 0.460046691,3.92620237 0.241210732,3.85173588 L0.0489386755,3.78790747 L0.0489386755,3.84863311 C0.0489386755,3.84863311 0.685207389,10.4464523 0.708819747,10.4765935 Z M0.838266066,10.7234854 C0.838266066,10.7288044 0.922595915,10.8843862 1.02294844,11.0670064 L1.2101607,11.4021055 L1.28647922,12.5155568 L1.36574927,13.6321108 L1.44501933,13.7039178 C1.64277283,13.8812189 2.11712823,13.9809508 2.85501441,13.9977944 C3.69325312,14.0172976 4.3463878,13.9064843 4.56016397,13.7039178 L4.64449382,13.6263485 L4.70521131,12.501816 L4.7659288,11.3799429 L4.9371184,11.0639036 C5.03198948,10.8923647 5.10830799,10.7425452 5.10830799,10.7314639 C5.10830799,10.7230421 5.02903793,10.7425452 4.92910706,10.7784487 C4.5732351,10.9056623 3.88004373,11.0195783 3.26359253,11.0554818 C2.57841251,11.094488 1.51627806,10.9584094 0.978675265,10.7620484 C0.902356751,10.7341234 0.839109364,10.7177231 0.839109364,10.7230421 L0.838266066,10.7234854 Z"/></svg>
