<svg xmlns="http://www.w3.org/2000/svg" width="14" height="10" viewBox="0 0 14 10"><path fill="#000000" fill-rule="evenodd" d="M9.4435004,8.95741857 C9.36128848,8.75339223 9.28037173,8.54241166 9.27071903,8.3373675 C9.24849241,7.8652265 9.26676814,6.920944 9.85082971,6.6691355 C10.4348928,6.417327 11.0355022,5.8507575 11.4296521,6.2284705 C11.8238024,6.6061835 10.4494642,7.3930855 10.4506988,8.085559 C10.4519344,8.778033 11.0819319,9.5019825 11.2387523,9.5019825 C11.3955728,9.5019825 12.0453272,9.3131265 12.0589097,8.9354135 C12.0724932,8.5577005 11.5452308,8.683605 11.5244859,8.2429395 C11.503741,7.8022745 12.384181,7.2513735 12.8393071,6.857992 C13.2763049,6.480279 14.0375616,5.661901 13.9575459,3.962193 C13.8775296,2.262485 12.9252471,0.688681 12.0994091,0.4683485 C11.273571,0.248016 7.92551882,-0.916599 7.41529754,1.570011 C6.90507675,4.0566215 8.98226722,4.8749995 9.51101085,4.780571 C10.0397545,4.686143 10.573437,3.3641475 10.573437,3.3641475 C10.573437,3.3641475 10.3906861,4.812047 9.73944999,4.9694275 C9.08821384,5.126808 7.44542793,4.8749995 6.98311654,3.049387 C6.52080465,1.223774 7.46938188,0.720157 6.83469213,0.562777 C5.98930985,0.3531525 3.73730522,0.0591595 1.97894259,1.3496785 C0.220579459,2.640198 -0.32100531,5.126808 0.137601309,4.8749995 C0.596207929,4.623191 0.777229921,3.804813 0.899476327,4.4028585 C1.02172174,5.000904 1.50527227,5.945186 1.93078658,6.322899 C2.35630088,6.700612 1.7430964,8.9983655 1.85645206,9.4075545 C1.96980722,9.8167435 2.63437925,9.942648 3.13620451,9.942648 C3.3718816,9.942648 3.74624006,9.94959041 4.06885174,9.92108948 C4.03059423,9.66345611 4.08100294,9.24810837 4.2259411,9.0820315 C4.28819118,9.01070213 4.35527838,8.97002746 4.4182029,8.94784977 C4.29610359,8.65972411 4.17406622,8.32955302 4.14207661,7.991131 C4.07959526,7.3301335 4.53968359,7.109801 4.72934971,7.141277 C4.91901633,7.172753 5.02521056,7.4450715 5.81054579,7.456038 C6.56345583,7.466552 6.55291149,7.235705 6.86803355,7.267181 C7.18315611,7.298657 7.39356715,7.770798 7.42023939,8.3373675 C7.44691113,8.903937 7.24958885,9.376078 7.26440643,9.6908385 C7.27455799,9.90647466 8.33900022,10.0039287 9.0329601,9.92247739 C9.00112072,9.66374158 9.05278761,9.26844015 9.19330352,9.1074305 C9.27515952,9.01363565 9.36537941,8.97284597 9.4435004,8.95741857 Z M13.1769363,6.113096 C13.4011355,5.938096 12.8281818,5.563096 12.6039825,5.213096 C12.3797832,4.863096 11.9313847,5.438096 12.0559398,5.788096 C12.180495,6.138096 12.9029149,6.238096 13.1769363,6.113096 Z M12.7415597,3.6308635 C12.7416086,3.74334942 12.6818398,3.84731171 12.5847789,3.90356885 C12.4877181,3.95982599 12.3681201,3.95982599 12.2710592,3.90356885 C12.1739984,3.84731171 12.1142295,3.74334942 12.1142785,3.6308635 C12.1142295,3.51837758 12.1739984,3.41441529 12.2710592,3.35815815 C12.3681201,3.30190101 12.4877181,3.30190101 12.5847789,3.35815815 C12.6818398,3.41441529 12.7416086,3.51837758 12.7415597,3.6308635 L12.7415597,3.6308635 Z" transform="matrix(-1 0 0 1 13.946 0)"/></svg>
