<svg xmlns="http://www.w3.org/2000/svg" width="12" height="11" viewBox="0 0 12 11"><path fill="#000000" fill-rule="evenodd" d="M8.93811395,4.19722361 C8.75877481,4.37394739 8.46329195,4.66479283 8.27736126,4.84760538 L2.35605863,10.6696049 C2.17047414,10.8520771 1.81777087,11 1.55270318,11 L1.19290639,11 C0.934809922,11 0.725581395,10.7989682 0.725581395,10.5357662 L0.725581395,1.83923376 C0.725581395,1.58284453 0.52731309,1.375 0.261951535,1.375 L0.46362986,1.375 C0.207574159,1.375 0,1.16015625 0,0.909487724 L0,0 L4.33975582,0 C4.59394166,0 4.8,0.21484375 4.8,0.465512276 L4.8,0.909487724 C4.8,1.16658306 4.6017317,1.375 4.33637014,1.375 L4.53804846,1.375 C4.28199276,1.375 4.0744186,1.57532072 4.0744186,1.83186881 L4.0744186,4.64403395 C4.0744186,4.89635563 4.21802292,4.95939268 4.3967882,4.78323439 L7.53309199,1.69266837 C7.7111318,1.51722498 7.64806944,1.375 7.39311493,1.375 L7.66234665,1.375 C7.40699965,1.375 7.2,1.16015625 7.2,0.909487724 L7.2,0.465512276 C7.2,0.208416945 7.39770844,0 7.66469932,0 L7.76070589,0 C8.01735224,0 8.43461477,0 8.69588649,0 L10.9434722,0 C11.2033118,0 11.6255297,0 11.8757146,0 L11.5382389,0 C11.7932625,0 12,0.208490753 12,0.466152191 L12,0.111347809 C12,0.368796555 12,0.781475652 12,1.04025238 L12,0.717237686 C12,0.972808768 11.8544817,1.32338625 11.6752778,1.49997677 L8.93811395,4.19722361 Z"/></svg>
