<svg xmlns="http://www.w3.org/2000/svg" width="12" height="14" viewBox="0 0 12 14"><path fill="#000000" fill-rule="evenodd" d="M5.99704896,14 C5.81623072,14 5.63594903,13.9511446 5.47712944,13.8562095 L3.82132797,12.842459 C3.57451375,12.6997789 3.6952381,12.6487028 3.7767941,12.6192785 C4.10623742,12.5010261 4.17330651,12.4738225 4.52474849,12.266742 C4.56177062,12.2456453 4.61006036,12.2534178 4.64869215,12.2767352 L5.92032193,13.0578671 C5.96700201,13.0845156 6.03138833,13.0845156 6.07431254,13.0578671 L11.0325956,10.0971161 C11.0787391,10.0699125 11.1082495,10.0143949 11.1082495,9.95832218 L11.1082495,4.03737521 C11.1082495,3.97963695 11.0787391,3.92522975 11.0315225,3.89580545 L6.07538565,0.93727508 C6.02924212,0.909516303 5.96861167,0.909516303 5.92246814,0.93727508 L0.967404427,3.8969158 C0.919114688,3.92522975 0.88906774,3.98130248 0.88906774,4.03737521 L0.88906774,9.95887736 C0.88906774,10.0155053 0.919114688,10.0688021 0.966867874,10.0960057 L2.32541918,10.9076723 C3.06264252,11.2890779 3.5138833,10.8399409 3.5138833,10.3885832 L3.5138833,4.54258494 C3.5138833,4.45986378 3.57826962,4.39490825 3.65821596,4.39490825 L4.28705567,4.39490825 C4.36539235,4.39490825 4.43031522,4.45986378 4.43031522,4.54258494 L4.43031522,10.3885832 C4.43031522,11.4062199 3.89483568,11.9902646 2.96230718,11.9902646 C2.67578806,11.9902646 2.4498994,11.9902646 1.81998659,11.668818 L0.519919517,10.8943481 C0.199061033,10.7022574 0,10.3430588 0,9.95832218 L0,4.03737521 C0,3.65263857 0.199061033,3.29399518 0.519919517,3.10245963 L5.4787391,0.137822324 C5.7926224,-0.0459407747 6.20952381,-0.0459407747 6.52072435,0.137822324 L11.4790074,3.10245963 C11.8004024,3.29455036 12,3.65319375 12,4.03737521 L12,9.95832218 C12,10.3430588 11.8004024,10.7005919 11.4790074,10.8943481 L6.52072435,13.8562095 C6.36190476,13.9511446 6.18215962,14 5.99865862,14 L5.99704896,14 Z M7.52890677,9.92057024 C5.35855131,9.92057024 4.90409121,8.8896093 4.90409121,8.025201 C4.90409121,7.94303503 4.96740443,7.87752431 5.04681422,7.87752431 L5.68799463,7.87752431 C5.75935614,7.87752431 5.81945003,7.93082116 5.83018109,8.00299398 C5.92676056,8.67808742 6.21488934,9.01952037 7.52783367,9.01952037 C8.57196512,9.01952037 9.01676727,8.77468796 9.01676727,8.20174682 C9.01676727,7.87086221 8.89121395,7.6260298 7.26760563,7.46114267 C5.91120054,7.32234879 5.07149564,7.01200567 5.07149564,5.88944076 C5.07149564,4.85403841 5.91495641,4.23668322 7.32877264,4.23668322 C8.91750503,4.23668322 9.70301811,4.80684849 9.8028169,6.03156569 C9.80657277,6.07320386 9.79208585,6.11373167 9.76472166,6.14537668 C9.73735748,6.17535616 9.69979879,6.19312177 9.65955734,6.19312177 L9.01569416,6.19312177 C8.94916164,6.19312177 8.8906774,6.14426633 8.87672703,6.07709009 C8.72219987,5.36646542 8.34661301,5.13939863 7.32823608,5.13939863 C6.18752515,5.13939863 6.05499665,5.55022851 6.05499665,5.85835093 C6.05499665,6.23198406 6.21167002,6.34079846 7.75103957,6.55120999 C9.27484909,6.75940081 9.99919517,7.05475419 9.99919517,8.16232936 C9.99919517,9.28045286 9.09885983,9.92057024 7.52783367,9.92057024 L7.52890677,9.92057024 Z"/></svg>
