<svg id="Bases" xmlns="http://www.w3.org/2000/svg" viewBox="0 0 32 32"><defs><style>.cls-1{fill:#1ba1e2;stroke:#1ba1e2;stroke-linecap:round;stroke-linejoin:round;stroke-width:0.5px;}</style></defs><title>config.yarn</title><path class="cls-1" d="M27,21.53a2,2,0,0,0-2.06-1.68A7.68,7.68,0,0,0,21,21.27a8.45,8.45,0,0,1-.92.5,7.48,7.48,0,0,0-.42-3.07A7.57,7.57,0,0,0,18,15.93,10,10,0,0,0,19.73,12a9.75,9.75,0,0,0-.51-5.48,1.12,1.12,0,0,0-.7-.57,1.38,1.38,0,0,0-.84,0c-.69-1.47-.94-1.63-1.13-1.75a1.44,1.44,0,0,0-1.3-.15A3.11,3.11,0,0,0,13.7,5.87c-.07.15-.13.29-.19.43A5.2,5.2,0,0,0,10,8a2,2,0,0,1-.74.39h0C8.66,8.58,8.37,9.09,8,10a3.94,3.94,0,0,0,.5,3.36,7.9,7.9,0,0,0-2,2.64,8.41,8.41,0,0,0-.62,3.43A4.63,4.63,0,0,0,4.57,22a4.82,4.82,0,0,0,.69,3,2,2,0,0,0,.23.3,1.76,1.76,0,0,0,0,.61A1.63,1.63,0,0,0,6.37,27a3.69,3.69,0,0,0,3.23.2,2.88,2.88,0,0,0,2.21.75h.07a46.14,46.14,0,0,0,5.27-.48A2.56,2.56,0,0,0,18.22,27a19.73,19.73,0,0,0,4.58-2.11,7.32,7.32,0,0,1,2.77-1.28A1.86,1.86,0,0,0,27,21.53Zm-1.67,1A8.2,8.2,0,0,0,22.22,24a18.66,18.66,0,0,1-4.57,2.06,1.28,1.28,0,0,1-.77.43,48.63,48.63,0,0,1-5,.45c-.91,0-1.47-.23-1.62-.61a1.23,1.23,0,0,1,.68-1.62,2.94,2.94,0,0,1-.4-.3c-.13-.13-.27-.4-.32-.3-.18.43-.27,1.48-.74,2a2.37,2.37,0,0,1-2.6.06c-.8-.42.06-1.42.06-1.42a.57.57,0,0,1-.78-.27,3.79,3.79,0,0,1-.52-2.3A4.2,4.2,0,0,1,7,19.87a7.29,7.29,0,0,1,.51-3.44A8.16,8.16,0,0,1,10,13.57s-1.51-1.68-1-3.19c.37-1,.51-1,.63-1a2.84,2.84,0,0,0,1.13-.67,4.11,4.11,0,0,1,3.45-1.32S15.14,4.58,16,5.13a14.34,14.34,0,0,1,1.2,2.25s1-.58,1.11-.37a8.86,8.86,0,0,1,.41,4.79,11,11,0,0,1-2,4.23c-.11.18,1.21.73,2,3a8.9,8.9,0,0,1,.2,4.07l0,0a5.11,5.11,0,0,0,2.65-1,6.64,6.64,0,0,1,3.34-1.25A.85.85,0,0,1,25.31,22.57Z"/></svg>